<?xml version="1.0" encoding="UTF-8" standalone="no"?>
<svg
   xmlns:dc="http://purl.org/dc/elements/1.1/"
   xmlns:cc="http://creativecommons.org/ns#"
   xmlns:rdf="http://www.w3.org/1999/02/22-rdf-syntax-ns#"
   xmlns:svg="http://www.w3.org/2000/svg"
   xmlns="http://www.w3.org/2000/svg"
   viewBox="0 0 502.48499 320.71875"
   height="320.71875"
   width="502.48499"
   xml:space="preserve"
   version="1.1"
   id="svg2"><metadata
     id="metadata8"><rdf:RDF><cc:Work
         rdf:about=""><dc:format>image/svg+xml</dc:format><dc:type
           rdf:resource="http://purl.org/dc/dcmitype/StillImage" /></cc:Work></rdf:RDF></metadata><defs
     id="defs6" /><g
     transform="matrix(1.25,0,0,-1.25,0,320.71875)"
     id="g10"><g
       transform="translate(50.285,279.913)"
       id="g12"><g
         id="g14"><g
           id="g16" /><g
           id="g18"><g
             id="g20" /><g
             id="g22" /><g
             id="g24"><g
               id="g26" /><g
               transform="translate(-41.844,-36.806)"
               id="g28"><g
                 id="g30"><g
                   transform="translate(-8.441,-243.107)"
                   id="g32"><text
                     id="text34"
                     style="font-variant:normal;font-weight:normal;font-size:9.96259975px;font-family:CMR10;-inkscape-font-specification:CMR10;writing-mode:lr-tb;fill:#000080;fill-opacity:1;fill-rule:nonzero;stroke:none"
                     transform="matrix(1,0,0,-1,9.351,243.206)"><tspan
                       id="tspan36"
                       y="0"
                       x="0 5.3339763 11.508796 17.396692 26.615086 33.056904 36.73111 42.07505 52.001781 67.252533 72.431091 77.599686">examples=...</tspan></text>
<g
                     transform="translate(8.441,243.107)"
                     id="g38" /></g></g><g
                 transform="translate(41.844,36.806)"
                 id="g40" /></g></g><g
             id="g42"><g
               transform="translate(-41.844,-61.115)"
               id="g44"><g
                 id="g46"><g
                   transform="translate(-8.441,-218.798)"
                   id="g48"><text
                     id="text50"
                     style="font-variant:normal;font-weight:normal;font-size:9.96259975px;font-family:CMR10;-inkscape-font-specification:CMR10;writing-mode:lr-tb;fill:#000000;fill-opacity:1;fill-rule:nonzero;stroke:none"
                     transform="matrix(1,0,0,-1,9.943,230.853)"><tspan
                       id="tspan52"
                       y="0"
                       x="0 4.548923 11.024613 23.175997 28.370497 34.395878 40.144299 49.213253 55.525555 59.060284 71.447784 75.430832 89.135384 95.646935 99.390884">forexampleindlp</tspan></text>
<g
                     transform="translate(116.448,231.052)"
                     id="g54"><path
                       id="path56"
                       style="fill:none;stroke:#000000;stroke-width:0.398;stroke-linecap:butt;stroke-linejoin:miter;stroke-miterlimit:10;stroke-dasharray:none;stroke-opacity:1"
                       d="M 0,0 2.989,0" /></g><text
                     id="text58"
                     style="font-variant:normal;font-weight:normal;font-size:9.96259975px;font-family:CMR10;-inkscape-font-specification:CMR10;writing-mode:lr-tb;fill:#000000;fill-opacity:1;fill-rule:nonzero;stroke:none"
                     transform="matrix(1,0,0,-1,120.414,230.853)"><tspan
                       id="tspan60"
                       y="0"
                       x="0 9.2781696 15.789724 21.137648 26.694786 31.799623 38.510429 42.463589 46.406788">mpi.split</tspan></text>
<g
                     transform="translate(172.472,231.052)"
                     id="g62"><path
                       id="path64"
                       style="fill:none;stroke:#000000;stroke-width:0.398;stroke-linecap:butt;stroke-linejoin:miter;stroke-miterlimit:10;stroke-dasharray:none;stroke-opacity:1"
                       d="M 0,0 2.989,0" /></g><text
                     id="text66"
                     style="font-variant:normal;font-weight:normal;font-size:9.96259975px;font-family:CMR10;-inkscape-font-specification:CMR10;writing-mode:lr-tb;fill:#000000;fill-opacity:1;fill-rule:nonzero;stroke:none"
                     transform="matrix(1,0,0,-1,176.64,230.853)"><tspan
                       id="tspan68"
                       y="0"
                       x="0 9.4774218 15.644271 22.355078 28.511965 34.678814 40.28178 48.048622 53.885712 59.219688 65.394508 71.282402 80.490837 86.942612 90.616821 95.950798 102.56995 108.20779">managed(examples):</tspan><tspan
                       id="tspan70"
                       y="11.955"
                       x="-169.36099 -154.74287 -150.19395 -143.71826 -131.26801 -127.44436 -120.8531 -114.25188 -108.76846 -95.251213 -91.268166 -77.55365 -71.042091 -67.298149">#forindexindlp</tspan></text>
<g
                     transform="translate(116.448,219.097)"
                     id="g72"><path
                       id="path74"
                       style="fill:none;stroke:#000000;stroke-width:0.398;stroke-linecap:butt;stroke-linejoin:miter;stroke-miterlimit:10;stroke-dasharray:none;stroke-opacity:1"
                       d="M 0,0 2.989,0" /></g><text
                     id="text76"
                     style="font-variant:normal;font-weight:normal;font-size:9.96259975px;font-family:CMR10;-inkscape-font-specification:CMR10;writing-mode:lr-tb;fill:#000000;fill-opacity:1;fill-rule:nonzero;stroke:none"
                     transform="matrix(1,0,0,-1,120.414,218.898)"><tspan
                       id="tspan78"
                       y="0"
                       x="0 9.2781696 15.789724 21.137648 26.694786 31.799623 38.510429 42.463589 46.406788">mpi.split</tspan></text>
<g
                     transform="translate(172.472,219.097)"
                     id="g80"><path
                       id="path82"
                       style="fill:none;stroke:#000000;stroke-width:0.398;stroke-linecap:butt;stroke-linejoin:miter;stroke-miterlimit:10;stroke-dasharray:none;stroke-opacity:1"
                       d="M 0,0 2.989,0" /></g><text
                     id="text84"
                     style="font-variant:normal;font-weight:normal;font-size:9.96259975px;font-family:CMR10;-inkscape-font-specification:CMR10;writing-mode:lr-tb;fill:#000000;fill-opacity:1;fill-rule:nonzero;stroke:none"
                     transform="matrix(1,0,0,-1,176.64,218.898)"><tspan
                       id="tspan86"
                       y="0"
                       x="0 9.4774218 15.644271 22.355078 28.511965 34.678814 40.28178 48.048622 55.091187 59.970867 64.850548 70.891869 77.934433 83.871147 88.779716 94.777199 101.31865 107.31613 113.80577 120.03139 124.09415 129.82663 137.71301 143.55011 148.88408 155.0589 160.94679 170.15523 176.60701 180.28122 185.61519 192.39375 198.21091 204.01811 209.83527 215.64247">managed(list(range(len(examples)))):</tspan><tspan
                       id="tspan88"
                       y="11.956"
                       x="-169.36099 -119.60479 -114.41029 -108.3849 -102.63649 -93.567535 -87.26519 -83.730461 -73.445076 -59.688713 -54.354736 -48.17992 -42.292023 -33.083591 -26.631811 -22.957603 -17.623629 -11.173841 -5.7462163 -1.912608 4.678648 11.279867 16.763283 24.691519">#example=examples[index]</tspan></text>
<g
                     transform="translate(8.441,218.798)"
                     id="g90" /></g></g><g
                 transform="translate(41.844,61.115)"
                 id="g92" /></g></g><g
             id="g94"><g
               id="g96" /><g
               transform="translate(-41.844,-91.401)"
               id="g98"><g
                 id="g100"><g
                   transform="translate(-8.441,-188.512)"
                   id="g102"><text
                     id="text104"
                     style="font-variant:normal;font-weight:normal;font-size:9.96259975px;font-family:CMR10;-inkscape-font-specification:CMR10;writing-mode:lr-tb;fill:#804000;fill-opacity:1;fill-rule:nonzero;stroke:none"
                     transform="matrix(1,0,0,-1,57.895,194.589)"><tspan
                       id="tspan106"
                       y="0"
                       x="0 5.5362167 11.597463 17.160578 24.329666 28.72118 39.320389 54.302147 59.211716">result=..</tspan><tspan
                       id="tspan108"
                       y="11.955"
                       x="-47.769001 -42.182972 -36.071911 -30.458982 -23.240082 -18.788794 -13.220695 -6.0037885 -1.0145181 4.5844631 10.737365 16.890266 21.925365 28.078266 35.287205 41.841599 47.377815 53.43906 59.002178 66.171265 70.572739 77.127136">results.append(result)</tspan></text>
<g
                     transform="translate(8.441,188.512)"
                     id="g110" /></g></g><g
                 transform="translate(41.844,91.401)"
                 id="g112" /></g></g><g
             id="g114"><g
               id="g116" /><g
               transform="translate(-41.844,-109.733)"
               id="g118"><g
                 id="g120"><g
                   transform="translate(-8.441,-170.18)"
                   id="g122"><text
                     id="text124"
                     style="font-variant:normal;font-weight:normal;font-size:9.96259975px;font-family:CMR10;-inkscape-font-specification:CMR10;writing-mode:lr-tb;fill:#8f8b48;fill-opacity:1;fill-rule:nonzero;stroke:none"
                     transform="matrix(1,0,0,-1,10.126,170.28)"><tspan
                       id="tspan126"
                       y="0"
                       x="0 5.58603 11.697088 17.310017 24.528917 28.980207 34.548306 45.252121 59.068256 65.579811 69.323753">results=dlp</tspan></text>
<g
                     transform="translate(86.56,170.479)"
                     id="g128"><path
                       id="path130"
                       style="fill:none;stroke:#8f8b48;stroke-width:0.398;stroke-linecap:butt;stroke-linejoin:miter;stroke-miterlimit:10;stroke-dasharray:none;stroke-opacity:1"
                       d="M 0,0 2.989,0" /></g><text
                     id="text132"
                     style="font-variant:normal;font-weight:normal;font-size:9.96259975px;font-family:CMR10;-inkscape-font-specification:CMR10;writing-mode:lr-tb;fill:#8f8b48;fill-opacity:1;fill-rule:nonzero;stroke:none"
                     transform="matrix(1,0,0,-1,90.526,170.28)"><tspan
                       id="tspan134"
                       y="0"
                       x="0 9.2781696 15.789724 21.137648 26.674862 32.821785 38.978672 44.018753 50.719597 56.312599 62.426647 69.040817 74.626846 80.737907 86.350838 93.569733 98.030991 103.58912 110.24812">mpi.gather(results)</tspan></text>
<g
                     transform="translate(8.441,170.18)"
                     id="g136" /></g></g><g
                 transform="translate(41.844,109.733)"
                 id="g138" /></g></g><g
             id="g140"><g
               id="g142" /><g
               transform="translate(-41.844,-157.952)"
               id="g144"><g
                 id="g146"><g
                   transform="translate(-8.441,-121.961)"
                   id="g148"><text
                     id="text150"
                     style="font-variant:normal;font-weight:normal;font-size:9.96259975px;font-family:CMR10;-inkscape-font-specification:CMR10;writing-mode:lr-tb;fill:#008000;fill-opacity:1;fill-rule:nonzero;stroke:none"
                     transform="matrix(1,0,0,-1,10.489,157.926)"><tspan
                       id="tspan152"
                       y="0"
                       x="0 4.8199058 16.860704 23.372259 27.116205">ifdlp</tspan></text>
<g
                     transform="translate(44.717,158.126)"
                     id="g154"><path
                       id="path156"
                       style="fill:none;stroke:#008000;stroke-width:0.398;stroke-linecap:butt;stroke-linejoin:miter;stroke-miterlimit:10;stroke-dasharray:none;stroke-opacity:1"
                       d="M 0,0 2.989,0" /></g><text
                     id="text158"
                     style="font-variant:normal;font-weight:normal;font-size:9.96259975px;font-family:CMR10;-inkscape-font-specification:CMR10;writing-mode:lr-tb;fill:#008000;fill-opacity:1;fill-rule:nonzero;stroke:none"
                     transform="matrix(1,0,0,-1,48.682,157.926)"><tspan
                       id="tspan160"
                       y="0"
                       x="0 9.2781696 15.789724 21.137648 25.280098 28.638491">mpi.IS</tspan></text>
<g
                     transform="translate(83.215,158.126)"
                     id="g162"><path
                       id="path164"
                       style="fill:none;stroke:#008000;stroke-width:0.398;stroke-linecap:butt;stroke-linejoin:miter;stroke-miterlimit:10;stroke-dasharray:none;stroke-opacity:1"
                       d="M 0,0 2.989,0" /></g><text
                     id="text166"
                     style="font-variant:normal;font-weight:normal;font-size:9.96259975px;font-family:CMR10;-inkscape-font-specification:CMR10;writing-mode:lr-tb;fill:#008000;fill-opacity:1;fill-rule:nonzero;stroke:none"
                     transform="matrix(1,0,0,-1,85.967,157.926)"><tspan
                       id="tspan168"
                       y="0"
                       x="0 8.8936129 16.126461 21.432541 28.38843 34.929871 43.62822">MASTER:</tspan><tspan
                       id="tspan170"
                       y="11.955"
                       x="-28.02 -22.433969 -16.322912 -10.709983 -3.4910824 0.97016972 6.5283041 17.232122 31.6759">results=[</tspan><tspan
                       id="tspan172"
                       y="23.91"
                       x="19.749001 25.285217 31.346462 36.90958 44.078667 48.480141">result</tspan><tspan
                       id="tspan174"
                       y="35.865002"
                       x="19.618 24.166924 30.642612 43.501343 52.160831 58.616596 63.993412 70.716179 76.618019">forworker</tspan></text>
<g
                     transform="translate(168.557,122.26)"
                     id="g176"><path
                       id="path178"
                       style="fill:none;stroke:#008000;stroke-width:0.398;stroke-linecap:butt;stroke-linejoin:miter;stroke-miterlimit:10;stroke-dasharray:none;stroke-opacity:1"
                       d="M 0,0 2.989,0" /></g><text
                     id="text180"
                     style="font-variant:normal;font-weight:normal;font-size:9.96259975px;font-family:CMR10;-inkscape-font-specification:CMR10;writing-mode:lr-tb;fill:#008000;fill-opacity:1;fill-rule:nonzero;stroke:none"
                     transform="matrix(1,0,0,-1,173.017,122.061)"><tspan
                       id="tspan182"
                       y="0"
                       x="0 5.3768153 11.268697 16.672411 23.682096 27.914209 33.26313 45.85984 49.842888 64.254784 69.850777 75.961838 81.574768 88.793663 93.244957 98.803093">resultsinresults</tspan><tspan
                       id="tspan184"
                       y="11.955"
                       x="-67.431999 -62.883076 -56.407387 -43.389256 -37.853039 -31.791794 -26.22868 -19.059591 -14.668077 -1.9567965 2.0262508 16.228933 24.888426 31.344191 36.721004 43.443768 49.345612">forresultinworker</tspan></text>
<g
                     transform="translate(228.333,110.305)"
                     id="g186"><path
                       id="path188"
                       style="fill:none;stroke:#008000;stroke-width:0.398;stroke-linecap:butt;stroke-linejoin:miter;stroke-miterlimit:10;stroke-dasharray:none;stroke-opacity:1"
                       d="M 0,0 2.989,0" /></g><text
                     id="text190"
                     style="font-variant:normal;font-weight:normal;font-size:9.96259975px;font-family:CMR10;-inkscape-font-specification:CMR10;writing-mode:lr-tb;fill:#008000;fill-opacity:1;fill-rule:nonzero;stroke:none"
                     transform="matrix(1,0,0,-1,232.793,110.106)"><tspan
                       id="tspan192"
                       y="0"
                       x="0 5.3768153 11.268697 16.672411 23.682096 27.914209 33.26313">results</tspan><tspan
                       id="tspan194"
                       y="11.956"
                       x="-174.92599">]</tspan><tspan
                       id="tspan196"
                       y="23.910999"
                       x="-176.73 -171.39403 -166.05806 -157.95547 -151.56348 -144.95927 -139.37325 -133.26218 -127.63929 -120.42039 -115.9691 -110.41096 -103.75196">dump(results)</tspan></text>
<g
                     transform="translate(8.441,121.961)"
                     id="g198" /></g></g><g
                 transform="translate(41.844,157.952)"
                 id="g200" /></g></g><g
             id="g202"><g
               id="g204"><path
                 id="path206"
                 style="fill:#000080;fill-opacity:1;fill-rule:nonzero;stroke:#000000;stroke-width:0.3985;stroke-linecap:butt;stroke-linejoin:miter;stroke-miterlimit:10;stroke-dasharray:none;stroke-opacity:1"
                 d="m 1.66083,-223.24329 36.52946,0 0,17.15804 -36.52946,0 0,-17.15804 z" /></g><g
               transform="translate(4.981,-216.757)"
               id="g208"><g
                 transform="translate(3.293,0)"
                 id="g210"><g
                   transform="translate(-58.559,-63.156)"
                   id="g212"><text
                     id="text214"
                     style="font-variant:normal;font-weight:normal;font-size:9.96259975px;font-family:CMR10;-inkscape-font-specification:CMR10;writing-mode:lr-tb;fill:#ffffff;fill-opacity:1;fill-rule:nonzero;stroke:none"
                     transform="matrix(1,0,0,-1,58.559,63.156)"><tspan
                       id="tspan216"
                       y="0"
                       x="0 3.9292495 8.3566284 12.231084 17.766304">setup</tspan></text>
<g
                     transform="translate(55.266,63.156)"
                     id="g218" /></g></g><g
                 transform="translate(-4.981,216.757)"
                 id="g220" /></g></g><g
             id="g222"><g
               id="g224"><path
                 id="path226"
                 style="fill:#000080;fill-opacity:1;fill-rule:nonzero;stroke:#000000;stroke-width:0.3985;stroke-linecap:butt;stroke-linejoin:miter;stroke-miterlimit:10;stroke-dasharray:none;stroke-opacity:1"
                 d="m 1.66083,-240.40132 36.52946,0 0,17.15804 -36.52946,0 0,-17.15804 z" /></g><g
               transform="translate(4.981,-233.915)"
               id="g228"><g
                 transform="translate(3.293,0)"
                 id="g230"><g
                   transform="translate(-58.559,-45.998)"
                   id="g232"><text
                     id="text234"
                     style="font-variant:normal;font-weight:normal;font-size:9.96259975px;font-family:CMR10;-inkscape-font-specification:CMR10;writing-mode:lr-tb;fill:#ffffff;fill-opacity:1;fill-rule:nonzero;stroke:none"
                     transform="matrix(1,0,0,-1,58.559,45.998)"><tspan
                       id="tspan236"
                       y="0"
                       x="0 3.9292495 8.3566284 12.231084 17.766304">setup</tspan></text>
<g
                     transform="translate(55.266,45.998)"
                     id="g238" /></g></g><g
                 transform="translate(-4.981,233.915)"
                 id="g240" /></g></g><g
             id="g242"><g
               id="g244"><path
                 id="path246"
                 style="fill:#000080;fill-opacity:1;fill-rule:nonzero;stroke:#000000;stroke-width:0.3985;stroke-linecap:butt;stroke-linejoin:miter;stroke-miterlimit:10;stroke-dasharray:none;stroke-opacity:1"
                 d="m 1.66083,-257.55937 36.52946,0 0,17.15804 -36.52946,0 0,-17.15804 z" /></g><g
               transform="translate(4.981,-251.072)"
               id="g248"><g
                 transform="translate(3.293,0)"
                 id="g250"><g
                   transform="translate(-58.559,-28.841)"
                   id="g252"><text
                     id="text254"
                     style="font-variant:normal;font-weight:normal;font-size:9.96259975px;font-family:CMR10;-inkscape-font-specification:CMR10;writing-mode:lr-tb;fill:#ffffff;fill-opacity:1;fill-rule:nonzero;stroke:none"
                     transform="matrix(1,0,0,-1,58.559,28.841)"><tspan
                       id="tspan256"
                       y="0"
                       x="0 3.9292495 8.3566284 12.231084 17.766304">setup</tspan></text>
<g
                     transform="translate(55.266,28.841)"
                     id="g258" /></g></g><g
                 transform="translate(-4.981,251.072)"
                 id="g260" /></g></g><g
             id="g262"><g
               id="g264"><path
                 id="path266"
                 style="fill:#000080;fill-opacity:1;fill-rule:nonzero;stroke:#000000;stroke-width:0.3985;stroke-linecap:butt;stroke-linejoin:miter;stroke-miterlimit:10;stroke-dasharray:none;stroke-opacity:1"
                 d="m 1.66083,-274.71742 36.52946,0 0,17.15804 -36.52946,0 0,-17.15804 z" /></g><g
               transform="translate(4.981,-268.23)"
               id="g268"><g
                 transform="translate(3.293,0)"
                 id="g270"><g
                   transform="translate(-58.559,-11.683)"
                   id="g272"><text
                     id="text274"
                     style="font-variant:normal;font-weight:normal;font-size:9.96259975px;font-family:CMR10;-inkscape-font-specification:CMR10;writing-mode:lr-tb;fill:#ffffff;fill-opacity:1;fill-rule:nonzero;stroke:none"
                     transform="matrix(1,0,0,-1,58.559,11.683)"><tspan
                       id="tspan276"
                       y="0"
                       x="0 3.9292495 8.3566284 12.231084 17.766304">setup</tspan></text>
<g
                     transform="translate(55.266,11.683)"
                     id="g278" /></g></g><g
                 transform="translate(-4.981,268.23)"
                 id="g280" /></g></g><g
             id="g282"><g
               transform="translate(-40,-217.097)"
               id="g284"><g
                 id="g286"><g
                   transform="translate(-10.285,-62.816)"
                   id="g288"><text
                     id="text290"
                     style="font-variant:normal;font-weight:normal;font-size:9.96259975px;font-family:CMR10;-inkscape-font-specification:CMR10;writing-mode:lr-tb;fill:#000000;fill-opacity:1;fill-rule:nonzero;stroke:none"
                     transform="matrix(1,0,0,-1,10.285,62.816)"><tspan
                       id="tspan292"
                       y="0"
                       x="0 9.1327152 14.114016 19.649237 24.630535 29.611835 34.039215">Manager</tspan></text>
<g
                     transform="translate(10.285,62.816)"
                     id="g294" /></g></g><g
                 transform="translate(40,217.097)"
                 id="g296" /></g></g><g
             id="g298"><g
               transform="translate(-41.965,-235.278)"
               id="g300"><g
                 id="g302"><g
                   transform="translate(-8.32,-44.635)"
                   id="g304"><text
                     id="text306"
                     style="font-variant:normal;font-weight:normal;font-size:9.96259975px;font-family:CMR10;-inkscape-font-specification:CMR10;writing-mode:lr-tb;fill:#000000;fill-opacity:1;fill-rule:nonzero;stroke:none"
                     transform="matrix(1,0,0,-1,8.32,44.635)"><tspan
                       id="tspan308"
                       y="0"
                       x="0 9.4126644 14.393965 18.296314 23.275623 27.703001 34.922897">Worker1</tspan></text>
<g
                     transform="translate(8.32,44.635)"
                     id="g310" /></g></g><g
                 transform="translate(41.965,235.278)"
                 id="g312" /></g></g><g
             id="g314"><g
               transform="translate(-41.965,-252.436)"
               id="g316"><g
                 id="g318"><g
                   transform="translate(-8.32,-27.477)"
                   id="g320"><text
                     id="text322"
                     style="font-variant:normal;font-weight:normal;font-size:9.96259975px;font-family:CMR10;-inkscape-font-specification:CMR10;writing-mode:lr-tb;fill:#000000;fill-opacity:1;fill-rule:nonzero;stroke:none"
                     transform="matrix(1,0,0,-1,8.32,27.477)"><tspan
                       id="tspan324"
                       y="0"
                       x="0 9.4126644 14.393965 18.296314 23.275623 27.703001 34.922897">Worker2</tspan></text>
<g
                     transform="translate(8.32,27.477)"
                     id="g326" /></g></g><g
                 transform="translate(41.965,252.436)"
                 id="g328" /></g></g><g
             id="g330"><g
               transform="translate(-41.965,-269.594)"
               id="g332"><g
                 id="g334"><g
                   transform="translate(-8.32,-10.319)"
                   id="g336"><text
                     id="text338"
                     style="font-variant:normal;font-weight:normal;font-size:9.96259975px;font-family:CMR10;-inkscape-font-specification:CMR10;writing-mode:lr-tb;fill:#000000;fill-opacity:1;fill-rule:nonzero;stroke:none"
                     transform="matrix(1,0,0,-1,8.32,10.319)"><tspan
                       id="tspan340"
                       y="0"
                       x="0 9.4126644 14.393965 18.296314 23.275623 27.703001 34.922897">Worker3</tspan></text>
<g
                     transform="translate(8.32,10.319)"
                     id="g342" /></g></g><g
                 transform="translate(41.965,269.594)"
                 id="g344" /></g></g><g
             id="g346"><g
               id="g348"><path
                 id="path350"
                 style="fill:#804000;fill-opacity:1;fill-rule:nonzero;stroke:#000000;stroke-width:0.3985;stroke-linecap:butt;stroke-linejoin:miter;stroke-miterlimit:10;stroke-dasharray:none;stroke-opacity:1"
                 d="m 38.5888,-240.40132 41.51085,0 0,17.15804 -41.51085,0 0,-17.15804 z" /></g><g
               transform="translate(41.909,-235.029)"
               id="g352"><g
                 transform="translate(14.943,0)"
                 id="g354"><g
                   transform="translate(-107.137,-44.884)"
                   id="g356"><text
                     id="text358"
                     style="font-variant:normal;font-weight:normal;font-size:9.96259975px;font-family:CMR10;-inkscape-font-specification:CMR10;writing-mode:lr-tb;fill:#ffffff;fill-opacity:1;fill-rule:nonzero;stroke:none"
                     transform="matrix(1,0,0,-1,107.137,44.884)"><tspan
                       id="tspan360"
                       y="0"
                       x="0">1</tspan></text>
<g
                     transform="translate(92.194,44.884)"
                     id="g362" /></g></g><g
                 transform="translate(-41.909,235.029)"
                 id="g364" /></g></g><g
             id="g366"><g
               id="g368"><path
                 id="path370"
                 style="fill:#804000;fill-opacity:1;fill-rule:nonzero;stroke:#000000;stroke-width:0.3985;stroke-linecap:butt;stroke-linejoin:miter;stroke-miterlimit:10;stroke-dasharray:none;stroke-opacity:1"
                 d="m 38.5888,-257.55937 21.58528,0 0,17.15804 -21.58528,0 0,-17.15804 z" /></g><g
               transform="translate(41.909,-252.187)"
               id="g372"><g
                 transform="translate(4.981,0)"
                 id="g374"><g
                   transform="translate(-97.175,-27.726)"
                   id="g376"><text
                     id="text378"
                     style="font-variant:normal;font-weight:normal;font-size:9.96259975px;font-family:CMR10;-inkscape-font-specification:CMR10;writing-mode:lr-tb;fill:#ffffff;fill-opacity:1;fill-rule:nonzero;stroke:none"
                     transform="matrix(1,0,0,-1,97.175,27.726)"><tspan
                       id="tspan380"
                       y="0"
                       x="0">2</tspan></text>
<g
                     transform="translate(92.194,27.726)"
                     id="g382" /></g></g><g
                 transform="translate(-41.909,252.187)"
                 id="g384" /></g></g><g
             id="g386"><g
               id="g388"><path
                 id="path390"
                 style="fill:#804000;fill-opacity:1;fill-rule:nonzero;stroke:#000000;stroke-width:0.3985;stroke-linecap:butt;stroke-linejoin:miter;stroke-miterlimit:10;stroke-dasharray:none;stroke-opacity:1"
                 d="m 38.5888,-274.71742 26.5667,0 0,17.15804 -26.5667,0 0,-17.15804 z" /></g><g
               transform="translate(41.909,-269.345)"
               id="g392"><g
                 transform="translate(7.472,0)"
                 id="g394"><g
                   transform="translate(-99.666,-10.568)"
                   id="g396"><text
                     id="text398"
                     style="font-variant:normal;font-weight:normal;font-size:9.96259975px;font-family:CMR10;-inkscape-font-specification:CMR10;writing-mode:lr-tb;fill:#ffffff;fill-opacity:1;fill-rule:nonzero;stroke:none"
                     transform="matrix(1,0,0,-1,99.666,10.568)"><tspan
                       id="tspan400"
                       y="0"
                       x="0">3</tspan></text>
<g
                     transform="translate(92.194,10.568)"
                     id="g402" /></g></g><g
                 transform="translate(-41.909,269.345)"
                 id="g404" /></g></g><g
             id="g406"><g
               id="g408"><path
                 id="path410"
                 style="fill:#804000;fill-opacity:1;fill-rule:nonzero;stroke:#000000;stroke-width:0.3985;stroke-linecap:butt;stroke-linejoin:miter;stroke-miterlimit:10;stroke-dasharray:none;stroke-opacity:1"
                 d="m 60.5726,-257.55937 36.52946,0 0,17.15804 -36.52946,0 0,-17.15804 z" /></g><g
               transform="translate(63.892,-252.187)"
               id="g412"><g
                 transform="translate(12.453,0)"
                 id="g414"><g
                   transform="translate(-126.63,-27.726)"
                   id="g416"><text
                     id="text418"
                     style="font-variant:normal;font-weight:normal;font-size:9.96259975px;font-family:CMR10;-inkscape-font-specification:CMR10;writing-mode:lr-tb;fill:#ffffff;fill-opacity:1;fill-rule:nonzero;stroke:none"
                     transform="matrix(1,0,0,-1,126.63,27.726)"><tspan
                       id="tspan420"
                       y="0"
                       x="0">4</tspan></text>
<g
                     transform="translate(114.177,27.726)"
                     id="g422" /></g></g><g
                 transform="translate(-63.892,252.187)"
                 id="g424" /></g></g><g
             id="g426"><g
               id="g428"><path
                 id="path430"
                 style="fill:#804000;fill-opacity:1;fill-rule:nonzero;stroke:#000000;stroke-width:0.3985;stroke-linecap:butt;stroke-linejoin:miter;stroke-miterlimit:10;stroke-dasharray:none;stroke-opacity:1"
                 d="m 65.55402,-274.71742 41.51085,0 0,17.15804 -41.51085,0 0,-17.15804 z" /></g><g
               transform="translate(68.873,-269.345)"
               id="g432"><g
                 transform="translate(14.944,0)"
                 id="g434"><g
                   transform="translate(-134.102,-10.568)"
                   id="g436"><text
                     id="text438"
                     style="font-variant:normal;font-weight:normal;font-size:9.96259975px;font-family:CMR10;-inkscape-font-specification:CMR10;writing-mode:lr-tb;fill:#ffffff;fill-opacity:1;fill-rule:nonzero;stroke:none"
                     transform="matrix(1,0,0,-1,134.102,10.568)"><tspan
                       id="tspan440"
                       y="0"
                       x="0">5</tspan></text>
<g
                     transform="translate(119.158,10.568)"
                     id="g442" /></g></g><g
                 transform="translate(-68.873,269.345)"
                 id="g444" /></g></g><g
             id="g446"><g
               id="g448"><path
                 id="path450"
                 style="fill:#804000;fill-opacity:1;fill-rule:nonzero;stroke:#000000;stroke-width:0.3985;stroke-linecap:butt;stroke-linejoin:miter;stroke-miterlimit:10;stroke-dasharray:none;stroke-opacity:1"
                 d="m 80.49817,-240.40132 18.59642,0 0,17.15804 -18.59642,0 0,-17.15804 z" /></g><g
               transform="translate(83.817,-235.029)"
               id="g452"><g
                 transform="translate(3.487,0)"
                 id="g454"><g
                   transform="translate(-137.589,-44.884)"
                   id="g456"><text
                     id="text458"
                     style="font-variant:normal;font-weight:normal;font-size:9.96259975px;font-family:CMR10;-inkscape-font-specification:CMR10;writing-mode:lr-tb;fill:#ffffff;fill-opacity:1;fill-rule:nonzero;stroke:none"
                     transform="matrix(1,0,0,-1,137.589,44.884)"><tspan
                       id="tspan460"
                       y="0"
                       x="0">6</tspan></text>
<g
                     transform="translate(134.102,44.884)"
                     id="g462" /></g></g><g
                 transform="translate(-83.817,235.029)"
                 id="g464" /></g></g><g
             id="g466"><g
               id="g468"><path
                 id="path470"
                 style="fill:#804000;fill-opacity:1;fill-rule:nonzero;stroke:#000000;stroke-width:0.3985;stroke-linecap:butt;stroke-linejoin:miter;stroke-miterlimit:10;stroke-dasharray:none;stroke-opacity:1"
                 d="m 97.50056,-257.55937 17.60023,0 0,17.15804 -17.60023,0 0,-17.15804 z" /></g><g
               transform="translate(100.82,-252.187)"
               id="g472"><g
                 transform="translate(2.988,0)"
                 id="g474"><g
                   transform="translate(-154.093,-27.726)"
                   id="g476"><text
                     id="text478"
                     style="font-variant:normal;font-weight:normal;font-size:9.96259975px;font-family:CMR10;-inkscape-font-specification:CMR10;writing-mode:lr-tb;fill:#ffffff;fill-opacity:1;fill-rule:nonzero;stroke:none"
                     transform="matrix(1,0,0,-1,154.093,27.726)"><tspan
                       id="tspan480"
                       y="0"
                       x="0">7</tspan></text>
<g
                     transform="translate(151.105,27.726)"
                     id="g482" /></g></g><g
                 transform="translate(-100.82,252.187)"
                 id="g484" /></g></g><g
             id="g486"><g
               id="g488"><path
                 id="path490"
                 style="fill:#804000;fill-opacity:1;fill-rule:nonzero;stroke:#000000;stroke-width:0.3985;stroke-linecap:butt;stroke-linejoin:miter;stroke-miterlimit:10;stroke-dasharray:none;stroke-opacity:1"
                 d="m 99.49309,-240.40132 11.62251,0 0,17.15804 -11.62251,0 0,-17.15804 z" /></g><g
               transform="translate(102.812,-235.029)"
               id="g492"><g
                 id="g494"><g
                   transform="translate(-153.097,-44.884)"
                   id="g496"><text
                     id="text498"
                     style="font-variant:normal;font-weight:normal;font-size:9.96259975px;font-family:CMR10;-inkscape-font-specification:CMR10;writing-mode:lr-tb;fill:#ffffff;fill-opacity:1;fill-rule:nonzero;stroke:none"
                     transform="matrix(1,0,0,-1,153.097,44.884)"><tspan
                       id="tspan500"
                       y="0"
                       x="0">8</tspan></text>
<g
                     transform="translate(153.097,44.884)"
                     id="g502" /></g></g><g
                 transform="translate(-102.812,235.029)"
                 id="g504" /></g></g><g
             id="g506"><g
               id="g508"><path
                 id="path510"
                 style="fill:#804000;fill-opacity:1;fill-rule:nonzero;stroke:#000000;stroke-width:0.3985;stroke-linecap:butt;stroke-linejoin:miter;stroke-miterlimit:10;stroke-dasharray:none;stroke-opacity:1"
                 d="m 107.46336,-274.71742 26.5667,0 0,17.15804 -26.5667,0 0,-17.15804 z" /></g><g
               transform="translate(110.782,-269.345)"
               id="g512"><g
                 transform="translate(7.472,0)"
                 id="g514"><g
                   transform="translate(-168.539,-10.568)"
                   id="g516"><text
                     id="text518"
                     style="font-variant:normal;font-weight:normal;font-size:9.96259975px;font-family:CMR10;-inkscape-font-specification:CMR10;writing-mode:lr-tb;fill:#ffffff;fill-opacity:1;fill-rule:nonzero;stroke:none"
                     transform="matrix(1,0,0,-1,168.539,10.568)"><tspan
                       id="tspan520"
                       y="0"
                       x="0">9</tspan></text>
<g
                     transform="translate(161.067,10.568)"
                     id="g522" /></g></g><g
                 transform="translate(-110.782,269.345)"
                 id="g524" /></g></g><g
             id="g526"><g
               id="g528"><path
                 id="path530"
                 style="fill:#8f8b48;fill-opacity:1;fill-rule:nonzero;stroke:#000000;stroke-width:0.3985;stroke-linecap:butt;stroke-linejoin:miter;stroke-miterlimit:10;stroke-dasharray:none;stroke-opacity:1"
                 d="m 134.42857,-274.71742 8.63365,0 0,68.63219 -8.63365,0 0,-68.63219 z" /></g><g
               transform="translate(137.747,-240.398)"
               id="g532"><g
                 transform="translate(0.996,0)"
                 id="g534"><g
                   transform="translate(-0.996,0)"
                   id="g536" /></g><g
                 transform="translate(-137.747,240.398)"
                 id="g538" /></g></g><g
             id="g540"><g
               id="g542"><path
                 id="path544"
                 style="fill:#008000;fill-opacity:1;fill-rule:nonzero;stroke:#000000;stroke-width:0.3985;stroke-linecap:butt;stroke-linejoin:miter;stroke-miterlimit:10;stroke-dasharray:none;stroke-opacity:1"
                 d="m 143.46074,-223.24329 26.5667,0 0,17.15804 -26.5667,0 0,-17.15804 z" /></g><g
               transform="translate(146.779,-214.661)"
               id="g546"><g
                 transform="translate(9.963,0)"
                 id="g548"><g
                   transform="translate(-9.963,0)"
                   id="g550" /></g><g
                 transform="translate(-146.779,214.661)"
                 id="g552" /></g></g></g></g></g></g></svg>