<?xml version="1.0" encoding="UTF-8" standalone="no"?>
<svg
   xmlns:dc="http://purl.org/dc/elements/1.1/"
   xmlns:cc="http://creativecommons.org/ns#"
   xmlns:rdf="http://www.w3.org/1999/02/22-rdf-syntax-ns#"
   xmlns:svg="http://www.w3.org/2000/svg"
   xmlns="http://www.w3.org/2000/svg"
   viewBox="0 0 497.435 335.66251"
   height="335.66251"
   width="497.435"
   xml:space="preserve"
   version="1.1"
   id="svg2"><metadata
     id="metadata8"><rdf:RDF><cc:Work
         rdf:about=""><dc:format>image/svg+xml</dc:format><dc:type
           rdf:resource="http://purl.org/dc/dcmitype/StillImage" /></cc:Work></rdf:RDF></metadata><defs
     id="defs6" /><g
     transform="matrix(1.25,0,0,-1.25,0,335.6625)"
     id="g10"><g
       transform="translate(52.222,291.868)"
       id="g12"><g
         id="g14"><g
           id="g16" /><g
           id="g18"><g
             id="g20" /><g
             id="g22" /><g
             id="g24"><g
               id="g26" /><g
               transform="translate(-41.844,-36.806)"
               id="g28"><g
                 id="g30"><g
                   transform="translate(-10.378,-255.062)"
                   id="g32"><text
                     id="text34"
                     style="font-variant:normal;font-weight:normal;font-size:9.96259975px;font-family:CMR10;-inkscape-font-specification:CMR10;writing-mode:lr-tb;fill:#000080;fill-opacity:1;fill-rule:nonzero;stroke:none"
                     transform="matrix(1,0,0,-1,11.289,255.162)"><tspan
                       id="tspan36"
                       y="0"
                       x="0 5.3339763 11.508796 17.396692 26.605124 33.056904 36.73111 42.07505 52.001781 67.252533 72.431091 77.599686">examples=...</tspan></text>
<g
                     transform="translate(10.378,255.062)"
                     id="g38" /></g></g><g
                 transform="translate(41.844,36.806)"
                 id="g40" /></g></g><g
             id="g42"><g
               transform="translate(-41.844,-67.092)"
               id="g44"><g
                 id="g46"><g
                   transform="translate(-10.378,-224.776)"
                   id="g48"><text
                     id="text50"
                     style="font-variant:normal;font-weight:normal;font-size:9.96259975px;font-family:CMR10;-inkscape-font-specification:CMR10;writing-mode:lr-tb;fill:#000000;fill-opacity:1;fill-rule:nonzero;stroke:none"
                     transform="matrix(1,0,0,-1,11.88,242.808)"><tspan
                       id="tspan52"
                       y="0"
                       x="0 4.548923 11.024613 23.175997 28.370497 34.395878 40.144299 49.223213 55.525555 59.060284 71.447784 75.430832 89.135384 95.646935 99.400848">forexampleindlp</tspan></text>
<g
                     transform="translate(118.386,243.007)"
                     id="g54"><path
                       id="path56"
                       style="fill:none;stroke:#000000;stroke-width:0.398;stroke-linecap:butt;stroke-linejoin:miter;stroke-miterlimit:10;stroke-dasharray:none;stroke-opacity:1"
                       d="M 0,0 2.989,0" /></g><text
                     id="text58"
                     style="font-variant:normal;font-weight:normal;font-size:9.96259975px;font-family:CMR10;-inkscape-font-specification:CMR10;writing-mode:lr-tb;fill:#000000;fill-opacity:1;fill-rule:nonzero;stroke:none"
                     transform="matrix(1,0,0,-1,122.351,242.808)"><tspan
                       id="tspan60"
                       y="0"
                       x="0 9.2781696 15.789724 21.137648 27.033516 32.487041 39.536579 43.828465 48.110394">mpi.split</tspan></text>
<g
                     transform="translate(176.457,243.007)"
                     id="g62"><path
                       id="path64"
                       style="fill:none;stroke:#000000;stroke-width:0.398;stroke-linecap:butt;stroke-linejoin:miter;stroke-miterlimit:10;stroke-dasharray:none;stroke-opacity:1"
                       d="M 0,0 2.989,0" /></g><text
                     id="text66"
                     style="font-variant:normal;font-weight:normal;font-size:9.96259975px;font-family:CMR10;-inkscape-font-specification:CMR10;writing-mode:lr-tb;fill:#000000;fill-opacity:1;fill-rule:nonzero;stroke:none"
                     transform="matrix(1,0,0,-1,180.966,242.808)"><tspan
                       id="tspan68"
                       y="0"
                       x="0 5.4266281 11.922243 18.981741 26.031277">round</tspan></text>
<g
                     transform="translate(214.653,243.007)"
                     id="g70"><path
                       id="path72"
                       style="fill:none;stroke:#000000;stroke-width:0.398;stroke-linecap:butt;stroke-linejoin:miter;stroke-miterlimit:10;stroke-dasharray:none;stroke-opacity:1"
                       d="M 0,0 2.989,0" /></g><text
                     id="text74"
                     style="font-variant:normal;font-weight:normal;font-size:9.96259975px;font-family:CMR10;-inkscape-font-specification:CMR10;writing-mode:lr-tb;fill:#000000;fill-opacity:1;fill-rule:nonzero;stroke:none"
                     transform="matrix(1,0,0,-1,219.162,242.808)"><tspan
                       id="tspan76"
                       y="0"
                       x="0 5.4266281 11.922243 18.981741 23.263668 31.369238 37.206326 42.550266 48.715122 54.60302 63.821411 70.263229 73.947395 79.281372 85.890564 91.538361">robin(examples):</tspan><tspan
                       id="tspan78"
                       y="11.955"
                       x="-209.946 -195.32788 -190.77896 -184.30327 -172.15189 -166.95738 -160.93201 -155.17361 -146.10466 -139.80232 -136.26759 -123.8801 -119.89705 -106.25227 -100.9183 -94.743477 -88.855576 -79.647148 -73.195366 -69.521164 -64.187187 -57.737396 -52.389473 -45.877918 -42.133972">#forexampleinexamples[dlp</tspan></text>
<g
                     transform="translate(184.14,231.052)"
                     id="g80"><path
                       id="path82"
                       style="fill:none;stroke:#000000;stroke-width:0.398;stroke-linecap:butt;stroke-linejoin:miter;stroke-miterlimit:10;stroke-dasharray:none;stroke-opacity:1"
                       d="M 0,0 2.989,0" /></g><text
                     id="text84"
                     style="font-variant:normal;font-weight:normal;font-size:9.96259975px;font-family:CMR10;-inkscape-font-specification:CMR10;writing-mode:lr-tb;fill:#000000;fill-opacity:1;fill-rule:nonzero;stroke:none"
                     transform="matrix(1,0,0,-1,188.105,230.853)"><tspan
                       id="tspan86"
                       y="0"
                       x="0 9.2781696 15.789724 21.137648 24.2938 30.401871 36.648422 42.89497 51.56044 56.470009 62.355915 68.86747 72.611412">mpi.RANK::dlp</tspan></text>
<g
                     transform="translate(267.827,231.052)"
                     id="g88"><path
                       id="path90"
                       style="fill:none;stroke:#000000;stroke-width:0.398;stroke-linecap:butt;stroke-linejoin:miter;stroke-miterlimit:10;stroke-dasharray:none;stroke-opacity:1"
                       d="M 0,0 2.989,0" /></g><text
                     id="text92"
                     style="font-variant:normal;font-weight:normal;font-size:9.96259975px;font-family:CMR10;-inkscape-font-specification:CMR10;writing-mode:lr-tb;fill:#000000;fill-opacity:1;fill-rule:nonzero;stroke:none"
                     transform="matrix(1,0,0,-1,271.792,230.853)"><tspan
                       id="tspan94"
                       y="0"
                       x="0 9.2781696 15.789724 21.137648 25.897779 31.811579 35.787651 42.264339 51.565422 56.474991">mpi.SIZE]:</tspan><tspan
                       id="tspan96"
                       y="11.955"
                       x="-262.57599 -247.95787 -243.40895 -236.93326 -224.483 -220.65936 -214.05814 -207.46689 -201.98346 -188.46622 -184.48317 -170.73875 -165.83018 -159.8327 -153.29126 -147.29378 -140.8141 -134.90727 -128.39572 -124.65177">#forindexinrange(dlp</tspan></text>
<g
                     transform="translate(154.251,219.097)"
                     id="g98"><path
                       id="path100"
                       style="fill:none;stroke:#000000;stroke-width:0.398;stroke-linecap:butt;stroke-linejoin:miter;stroke-miterlimit:10;stroke-dasharray:none;stroke-opacity:1"
                       d="M 0,0 2.989,0" /></g><text
                     id="text102"
                     style="font-variant:normal;font-weight:normal;font-size:9.96259975px;font-family:CMR10;-inkscape-font-specification:CMR10;writing-mode:lr-tb;fill:#000000;fill-opacity:1;fill-rule:nonzero;stroke:none"
                     transform="matrix(1,0,0,-1,158.217,218.898)"><tspan
                       id="tspan104"
                       y="0"
                       x="0 9.2781696 15.789724 21.137648 24.493052 30.810337 37.256138 43.711903 51.032421 62.676708 66.74942 72.471939 80.368294 86.195419 91.53936 97.704216 103.60207 112.8105 119.25232 122.93649 128.27046 134.4413 140.96581 152.02231 158.53386 162.2778">mpi.RANK,len(examples),dlp</tspan></text>
<g
                     transform="translate(327.603,219.097)"
                     id="g106"><path
                       id="path108"
                       style="fill:none;stroke:#000000;stroke-width:0.398;stroke-linecap:butt;stroke-linejoin:miter;stroke-miterlimit:10;stroke-dasharray:none;stroke-opacity:1"
                       d="M 0,0 2.989,0" /></g><text
                     id="text110"
                     style="font-variant:normal;font-weight:normal;font-size:9.96259975px;font-family:CMR10;-inkscape-font-specification:CMR10;writing-mode:lr-tb;fill:#000000;fill-opacity:1;fill-rule:nonzero;stroke:none"
                     transform="matrix(1,0,0,-1,331.569,218.898)"><tspan
                       id="tspan112"
                       y="0"
                       x="0 9.2781696 15.789724 21.137648 25.897779 31.811579 35.787651 42.264339 51.196804 56.844604">mpi.SIZE):</tspan><tspan
                       id="tspan114"
                       y="11.956"
                       x="-322.353 -272.5968 -267.40228 -261.37689 -255.62848 -246.55952 -240.25719 -236.72246 -226.43707 -212.68071 -207.34674 -201.17192 -195.28403 -186.07559 -179.62381 -175.9496 -170.61563 -164.16585 -158.73822 -154.9046 -148.31335 -141.71213 -136.22871 -128.30048">#example=examples[index]</tspan></text>
<g
                     transform="translate(10.378,224.776)"
                     id="g116" /></g></g><g
                 transform="translate(41.844,67.092)"
                 id="g118" /></g></g><g
             id="g120"><g
               id="g122" /><g
               transform="translate(-41.844,-103.356)"
               id="g124"><g
                 id="g126"><g
                   transform="translate(-10.378,-188.512)"
                   id="g128"><text
                     id="text130"
                     style="font-variant:normal;font-weight:normal;font-size:9.96259975px;font-family:CMR10;-inkscape-font-specification:CMR10;writing-mode:lr-tb;fill:#804000;fill-opacity:1;fill-rule:nonzero;stroke:none"
                     transform="matrix(1,0,0,-1,59.832,194.589)"><tspan
                       id="tspan132"
                       y="0"
                       x="0 5.5362167 11.597463 17.160578 24.329666 28.731142 39.330353 54.302147 59.211716">result=..</tspan><tspan
                       id="tspan134"
                       y="11.955"
                       x="0.052000001 5.6380301 11.749088 17.362017 24.580917 29.04217 34.600304 41.817211 46.80648 52.405464 58.558365 64.711266 69.746361 75.899269 83.1082 89.662598 95.198814 101.26006 106.82317 113.99226 118.39374 124.94814">results.append(result)</tspan></text>
<g
                     transform="translate(10.378,188.512)"
                     id="g136" /></g></g><g
                 transform="translate(41.844,103.356)"
                 id="g138" /></g></g><g
             id="g140"><g
               id="g142" /><g
               transform="translate(-41.844,-121.688)"
               id="g144"><g
                 id="g146"><g
                   transform="translate(-10.378,-170.18)"
                   id="g148"><text
                     id="text150"
                     style="font-variant:normal;font-weight:normal;font-size:9.96259975px;font-family:CMR10;-inkscape-font-specification:CMR10;writing-mode:lr-tb;fill:#8f8b48;fill-opacity:1;fill-rule:nonzero;stroke:none"
                     transform="matrix(1,0,0,-1,12.063,170.28)"><tspan
                       id="tspan152"
                       y="0"
                       x="0 5.58603 11.697088 17.310017 24.528917 28.99017 34.548306 45.252121 59.068256 65.579811 69.323753">results=dlp</tspan></text>
<g
                     transform="translate(88.497,170.479)"
                     id="g154"><path
                       id="path156"
                       style="fill:none;stroke:#8f8b48;stroke-width:0.398;stroke-linecap:butt;stroke-linejoin:miter;stroke-miterlimit:10;stroke-dasharray:none;stroke-opacity:1"
                       d="M 0,0 2.989,0" /></g><text
                     id="text158"
                     style="font-variant:normal;font-weight:normal;font-size:9.96259975px;font-family:CMR10;-inkscape-font-specification:CMR10;writing-mode:lr-tb;fill:#8f8b48;fill-opacity:1;fill-rule:nonzero;stroke:none"
                     transform="matrix(1,0,0,-1,92.463,170.28)"><tspan
                       id="tspan160"
                       y="0"
                       x="0 9.2781696 15.789724 21.137648 26.674862 32.831749 38.978672 44.018753 50.719597 56.312599 62.426647 69.040817 74.626846 80.737907 86.350838 93.569733 98.030991 103.58912 110.24812">mpi.gather(results)</tspan></text>
<g
                     transform="translate(10.378,170.18)"
                     id="g162" /></g></g><g
                 transform="translate(41.844,121.688)"
                 id="g164" /></g></g><g
             id="g166"><g
               id="g168" /><g
               transform="translate(-41.844,-169.907)"
               id="g170"><g
                 id="g172"><g
                   transform="translate(-10.378,-121.961)"
                   id="g174"><text
                     id="text176"
                     style="font-variant:normal;font-weight:normal;font-size:9.96259975px;font-family:CMR10;-inkscape-font-specification:CMR10;writing-mode:lr-tb;fill:#008000;fill-opacity:1;fill-rule:nonzero;stroke:none"
                     transform="matrix(1,0,0,-1,12.426,157.926)"><tspan
                       id="tspan178"
                       y="0"
                       x="0 4.8199058 16.860704 23.372259 27.116205">ifdlp</tspan></text>
<g
                     transform="translate(46.654,158.126)"
                     id="g180"><path
                       id="path182"
                       style="fill:none;stroke:#008000;stroke-width:0.398;stroke-linecap:butt;stroke-linejoin:miter;stroke-miterlimit:10;stroke-dasharray:none;stroke-opacity:1"
                       d="M 0,0 2.989,0" /></g><text
                     id="text184"
                     style="font-variant:normal;font-weight:normal;font-size:9.96259975px;font-family:CMR10;-inkscape-font-specification:CMR10;writing-mode:lr-tb;fill:#008000;fill-opacity:1;fill-rule:nonzero;stroke:none"
                     transform="matrix(1,0,0,-1,50.62,157.926)"><tspan
                       id="tspan186"
                       y="0"
                       x="0 9.2781696 15.789724 21.137648 25.280098 28.638491">mpi.IS</tspan></text>
<g
                     transform="translate(85.152,158.126)"
                     id="g188"><path
                       id="path190"
                       style="fill:none;stroke:#008000;stroke-width:0.398;stroke-linecap:butt;stroke-linejoin:miter;stroke-miterlimit:10;stroke-dasharray:none;stroke-opacity:1"
                       d="M 0,0 2.989,0" /></g><text
                     id="text192"
                     style="font-variant:normal;font-weight:normal;font-size:9.96259975px;font-family:CMR10;-inkscape-font-specification:CMR10;writing-mode:lr-tb;fill:#008000;fill-opacity:1;fill-rule:nonzero;stroke:none"
                     transform="matrix(1,0,0,-1,87.904,157.926)"><tspan
                       id="tspan194"
                       y="0"
                       x="0 8.8936129 16.126461 21.432541 28.38843 34.929871 43.62822">MASTER:</tspan><tspan
                       id="tspan196"
                       y="11.955"
                       x="-28.02 -22.433969 -16.322912 -10.709983 -3.4910824 0.97016972 6.5283041 17.232122 31.6759">results=[</tspan><tspan
                       id="tspan198"
                       y="23.91"
                       x="19.749001 25.285217 31.346462 36.90958 44.078667 48.480141">result</tspan><tspan
                       id="tspan200"
                       y="35.865002"
                       x="19.618 24.166924 30.642612 43.501343 52.160831 58.616596 63.993412 70.716179 76.618019">forworker</tspan></text>
<g
                     transform="translate(170.494,122.26)"
                     id="g202"><path
                       id="path204"
                       style="fill:none;stroke:#008000;stroke-width:0.398;stroke-linecap:butt;stroke-linejoin:miter;stroke-miterlimit:10;stroke-dasharray:none;stroke-opacity:1"
                       d="M 0,0 2.989,0" /></g><text
                     id="text206"
                     style="font-variant:normal;font-weight:normal;font-size:9.96259975px;font-family:CMR10;-inkscape-font-specification:CMR10;writing-mode:lr-tb;fill:#008000;fill-opacity:1;fill-rule:nonzero;stroke:none"
                     transform="matrix(1,0,0,-1,174.954,122.061)"><tspan
                       id="tspan208"
                       y="0"
                       x="0 5.3768153 11.268697 16.672411 23.682096 27.914209 33.26313 45.85984 49.842888 64.254784 69.850777 75.961838 81.574768 88.793663 93.244957 98.803093">resultsinresults</tspan><tspan
                       id="tspan210"
                       y="11.955"
                       x="-67.431999 -62.883076 -56.407387 -43.389256 -37.853039 -31.791794 -26.22868 -19.059591 -14.668077 -1.9567965 2.0262508 16.228933 24.888426 31.344191 36.721004 43.443768 49.345612">forresultinworker</tspan></text>
<g
                     transform="translate(230.27,110.305)"
                     id="g212"><path
                       id="path214"
                       style="fill:none;stroke:#008000;stroke-width:0.398;stroke-linecap:butt;stroke-linejoin:miter;stroke-miterlimit:10;stroke-dasharray:none;stroke-opacity:1"
                       d="M 0,0 2.989,0" /></g><text
                     id="text216"
                     style="font-variant:normal;font-weight:normal;font-size:9.96259975px;font-family:CMR10;-inkscape-font-specification:CMR10;writing-mode:lr-tb;fill:#008000;fill-opacity:1;fill-rule:nonzero;stroke:none"
                     transform="matrix(1,0,0,-1,234.73,110.106)"><tspan
                       id="tspan218"
                       y="0"
                       x="0 5.3768153 11.268697 16.672411 23.682096 27.914209 33.26313">results</tspan><tspan
                       id="tspan220"
                       y="11.956"
                       x="-174.925">]</tspan><tspan
                       id="tspan222"
                       y="23.910999"
                       x="-176.73 -171.39403 -166.05806 -157.95547 -151.56348 -144.95927 -139.37325 -133.26218 -127.63929 -120.42039 -115.9691 -110.41096 -103.75196">dump(results)</tspan></text>
<g
                     transform="translate(10.378,121.961)"
                     id="g224" /></g></g><g
                 transform="translate(41.844,169.907)"
                 id="g226" /></g></g><g
             id="g228"><g
               id="g230"><path
                 id="path232"
                 style="fill:#000080;fill-opacity:1;fill-rule:nonzero;stroke:#000000;stroke-width:0.3985;stroke-linecap:butt;stroke-linejoin:miter;stroke-miterlimit:10;stroke-dasharray:none;stroke-opacity:1"
                 d="m 61.43753,-235.19861 36.52946,0 0,17.15804 -36.52946,0 0,-17.15804 z" /></g><g
               transform="translate(64.757,-228.712)"
               id="g234"><g
                 transform="translate(3.293,0)"
                 id="g236"><g
                   transform="translate(-120.272,-63.156)"
                   id="g238"><text
                     id="text240"
                     style="font-variant:normal;font-weight:normal;font-size:9.96259975px;font-family:CMR10;-inkscape-font-specification:CMR10;writing-mode:lr-tb;fill:#ffffff;fill-opacity:1;fill-rule:nonzero;stroke:none"
                     transform="matrix(1,0,0,-1,120.272,63.156)"><tspan
                       id="tspan242"
                       y="0"
                       x="0 3.9292495 8.3566284 12.231084 17.766304">setup</tspan></text>
<g
                     transform="translate(116.979,63.156)"
                     id="g244" /></g></g><g
                 transform="translate(-64.757,228.712)"
                 id="g246" /></g></g><g
             id="g248"><g
               id="g250"><path
                 id="path252"
                 style="fill:#000080;fill-opacity:1;fill-rule:nonzero;stroke:#000000;stroke-width:0.3985;stroke-linecap:butt;stroke-linejoin:miter;stroke-miterlimit:10;stroke-dasharray:none;stroke-opacity:1"
                 d="m 61.43753,-252.35664 36.52946,0 0,17.15804 -36.52946,0 0,-17.15804 z" /></g><g
               transform="translate(64.757,-245.87)"
               id="g254"><g
                 transform="translate(3.293,0)"
                 id="g256"><g
                   transform="translate(-120.272,-45.998)"
                   id="g258"><text
                     id="text260"
                     style="font-variant:normal;font-weight:normal;font-size:9.96259975px;font-family:CMR10;-inkscape-font-specification:CMR10;writing-mode:lr-tb;fill:#ffffff;fill-opacity:1;fill-rule:nonzero;stroke:none"
                     transform="matrix(1,0,0,-1,120.272,45.998)"><tspan
                       id="tspan262"
                       y="0"
                       x="0 3.9292495 8.3566284 12.231084 17.766304">setup</tspan></text>
<g
                     transform="translate(116.979,45.998)"
                     id="g264" /></g></g><g
                 transform="translate(-64.757,245.87)"
                 id="g266" /></g></g><g
             id="g268"><g
               id="g270"><path
                 id="path272"
                 style="fill:#000080;fill-opacity:1;fill-rule:nonzero;stroke:#000000;stroke-width:0.3985;stroke-linecap:butt;stroke-linejoin:miter;stroke-miterlimit:10;stroke-dasharray:none;stroke-opacity:1"
                 d="m 61.43753,-269.5147 36.52946,0 0,17.15804 -36.52946,0 0,-17.15804 z" /></g><g
               transform="translate(64.757,-263.027)"
               id="g274"><g
                 transform="translate(3.293,0)"
                 id="g276"><g
                   transform="translate(-120.272,-28.841)"
                   id="g278"><text
                     id="text280"
                     style="font-variant:normal;font-weight:normal;font-size:9.96259975px;font-family:CMR10;-inkscape-font-specification:CMR10;writing-mode:lr-tb;fill:#ffffff;fill-opacity:1;fill-rule:nonzero;stroke:none"
                     transform="matrix(1,0,0,-1,120.272,28.841)"><tspan
                       id="tspan282"
                       y="0"
                       x="0 3.9292495 8.3566284 12.231084 17.766304">setup</tspan></text>
<g
                     transform="translate(116.979,28.841)"
                     id="g284" /></g></g><g
                 transform="translate(-64.757,263.027)"
                 id="g286" /></g></g><g
             id="g288"><g
               id="g290"><path
                 id="path292"
                 style="fill:#000080;fill-opacity:1;fill-rule:nonzero;stroke:#000000;stroke-width:0.3985;stroke-linecap:butt;stroke-linejoin:miter;stroke-miterlimit:10;stroke-dasharray:none;stroke-opacity:1"
                 d="m 61.43753,-286.67274 36.52946,0 0,17.15804 -36.52946,0 0,-17.15804 z" /></g><g
               transform="translate(64.757,-280.185)"
               id="g294"><g
                 transform="translate(3.293,0)"
                 id="g296"><g
                   transform="translate(-120.272,-11.683)"
                   id="g298"><text
                     id="text300"
                     style="font-variant:normal;font-weight:normal;font-size:9.96259975px;font-family:CMR10;-inkscape-font-specification:CMR10;writing-mode:lr-tb;fill:#ffffff;fill-opacity:1;fill-rule:nonzero;stroke:none"
                     transform="matrix(1,0,0,-1,120.272,11.683)"><tspan
                       id="tspan302"
                       y="0"
                       x="0 3.9292495 8.3566284 12.231084 17.766304">setup</tspan></text>
<g
                     transform="translate(116.979,11.683)"
                     id="g304" /></g></g><g
                 transform="translate(-64.757,280.185)"
                 id="g306" /></g></g><g
             id="g308"><g
               transform="translate(-43.902,-230.076)"
               id="g310"><g
                 id="g312"><g
                   transform="translate(-8.32,-61.792)"
                   id="g314"><text
                     id="text316"
                     style="font-variant:normal;font-weight:normal;font-size:9.96259975px;font-family:CMR10;-inkscape-font-specification:CMR10;writing-mode:lr-tb;fill:#000000;fill-opacity:1;fill-rule:nonzero;stroke:none"
                     transform="matrix(1,0,0,-1,8.32,61.792)"><tspan
                       id="tspan318"
                       y="0"
                       x="0 7.3334699 12.31477 17.849991 23.38521 32.237976 39.571445 44.552746 50.087967 52.855579 61.718307 71.12101 76.10231 80.004662 84.983963 89.411346 96.641205">RoundRobinWorker1</tspan></text>
<g
                     transform="translate(8.32,61.792)"
                     id="g320" /></g></g><g
                 transform="translate(43.902,230.076)"
                 id="g322" /></g></g><g
             id="g324"><g
               transform="translate(-43.902,-247.233)"
               id="g326"><g
                 id="g328"><g
                   transform="translate(-8.32,-44.635)"
                   id="g330"><text
                     id="text332"
                     style="font-variant:normal;font-weight:normal;font-size:9.96259975px;font-family:CMR10;-inkscape-font-specification:CMR10;writing-mode:lr-tb;fill:#000000;fill-opacity:1;fill-rule:nonzero;stroke:none"
                     transform="matrix(1,0,0,-1,8.32,44.635)"><tspan
                       id="tspan334"
                       y="0"
                       x="0 7.3334699 12.31477 17.849991 23.38521 32.237976 39.571445 44.552746 50.087967 52.855579 61.718307 71.12101 76.10231 80.004662 84.983963 89.411346 96.641205">RoundRobinWorker2</tspan></text>
<g
                     transform="translate(8.32,44.635)"
                     id="g336" /></g></g><g
                 transform="translate(43.902,247.233)"
                 id="g338" /></g></g><g
             id="g340"><g
               transform="translate(-43.902,-264.391)"
               id="g342"><g
                 id="g344"><g
                   transform="translate(-8.32,-27.477)"
                   id="g346"><text
                     id="text348"
                     style="font-variant:normal;font-weight:normal;font-size:9.96259975px;font-family:CMR10;-inkscape-font-specification:CMR10;writing-mode:lr-tb;fill:#000000;fill-opacity:1;fill-rule:nonzero;stroke:none"
                     transform="matrix(1,0,0,-1,8.32,27.477)"><tspan
                       id="tspan350"
                       y="0"
                       x="0 7.3334699 12.31477 17.849991 23.38521 32.237976 39.571445 44.552746 50.087967 52.855579 61.718307 71.12101 76.10231 80.004662 84.983963 89.411346 96.641205">RoundRobinWorker3</tspan></text>
<g
                     transform="translate(8.32,27.477)"
                     id="g352" /></g></g><g
                 transform="translate(43.902,264.391)"
                 id="g354" /></g></g><g
             id="g356"><g
               transform="translate(-43.902,-281.549)"
               id="g358"><g
                 id="g360"><g
                   transform="translate(-8.32,-10.319)"
                   id="g362"><text
                     id="text364"
                     style="font-variant:normal;font-weight:normal;font-size:9.96259975px;font-family:CMR10;-inkscape-font-specification:CMR10;writing-mode:lr-tb;fill:#000000;fill-opacity:1;fill-rule:nonzero;stroke:none"
                     transform="matrix(1,0,0,-1,8.32,10.319)"><tspan
                       id="tspan366"
                       y="0"
                       x="0 7.3334699 12.31477 17.849991 23.38521 32.237976 39.571445 44.552746 50.087967 52.855579 61.718307 71.12101 76.10231 80.004662 84.983963 89.411346 96.641205">RoundRobinWorker4</tspan></text>
<g
                     transform="translate(8.32,10.319)"
                     id="g368" /></g></g><g
                 transform="translate(43.902,281.549)"
                 id="g370" /></g></g><g
             id="g372"><g
               id="g374"><path
                 id="path376"
                 style="fill:#804000;fill-opacity:1;fill-rule:nonzero;stroke:#000000;stroke-width:0.3985;stroke-linecap:butt;stroke-linejoin:miter;stroke-miterlimit:10;stroke-dasharray:none;stroke-opacity:1"
                 d="m 98.36551,-235.19861 41.51085,0 0,17.15804 -41.51085,0 0,-17.15804 z" /></g><g
               transform="translate(101.685,-229.827)"
               id="g378"><g
                 transform="translate(14.944,0)"
                 id="g380"><g
                   transform="translate(-168.851,-62.041)"
                   id="g382"><text
                     id="text384"
                     style="font-variant:normal;font-weight:normal;font-size:9.96259975px;font-family:CMR10;-inkscape-font-specification:CMR10;writing-mode:lr-tb;fill:#ffffff;fill-opacity:1;fill-rule:nonzero;stroke:none"
                     transform="matrix(1,0,0,-1,168.851,62.041)"><tspan
                       id="tspan386"
                       y="0"
                       x="0">1</tspan></text>
<g
                     transform="translate(153.907,62.041)"
                     id="g388" /></g></g><g
                 transform="translate(-101.685,229.827)"
                 id="g390" /></g></g><g
             id="g392"><g
               id="g394"><path
                 id="path396"
                 style="fill:#804000;fill-opacity:1;fill-rule:nonzero;stroke:#000000;stroke-width:0.3985;stroke-linecap:butt;stroke-linejoin:miter;stroke-miterlimit:10;stroke-dasharray:none;stroke-opacity:1"
                 d="m 98.36551,-252.35664 21.58528,0 0,17.15804 -21.58528,0 0,-17.15804 z" /></g><g
               transform="translate(101.685,-246.984)"
               id="g398"><g
                 transform="translate(4.981,0)"
                 id="g400"><g
                   transform="translate(-158.888,-44.884)"
                   id="g402"><text
                     id="text404"
                     style="font-variant:normal;font-weight:normal;font-size:9.96259975px;font-family:CMR10;-inkscape-font-specification:CMR10;writing-mode:lr-tb;fill:#ffffff;fill-opacity:1;fill-rule:nonzero;stroke:none"
                     transform="matrix(1,0,0,-1,158.888,44.884)"><tspan
                       id="tspan406"
                       y="0"
                       x="0">2</tspan></text>
<g
                     transform="translate(153.907,44.884)"
                     id="g408" /></g></g><g
                 transform="translate(-101.685,246.984)"
                 id="g410" /></g></g><g
             id="g412"><g
               id="g414"><path
                 id="path416"
                 style="fill:#804000;fill-opacity:1;fill-rule:nonzero;stroke:#000000;stroke-width:0.3985;stroke-linecap:butt;stroke-linejoin:miter;stroke-miterlimit:10;stroke-dasharray:none;stroke-opacity:1"
                 d="m 98.36551,-269.5147 26.5667,0 0,17.15804 -26.5667,0 0,-17.15804 z" /></g><g
               transform="translate(101.685,-264.142)"
               id="g418"><g
                 transform="translate(7.472,0)"
                 id="g420"><g
                   transform="translate(-161.379,-27.726)"
                   id="g422"><text
                     id="text424"
                     style="font-variant:normal;font-weight:normal;font-size:9.96259975px;font-family:CMR10;-inkscape-font-specification:CMR10;writing-mode:lr-tb;fill:#ffffff;fill-opacity:1;fill-rule:nonzero;stroke:none"
                     transform="matrix(1,0,0,-1,161.379,27.726)"><tspan
                       id="tspan426"
                       y="0"
                       x="0">3</tspan></text>
<g
                     transform="translate(153.907,27.726)"
                     id="g428" /></g></g><g
                 transform="translate(-101.685,264.142)"
                 id="g430" /></g></g><g
             id="g432"><g
               id="g434"><path
                 id="path436"
                 style="fill:#804000;fill-opacity:1;fill-rule:nonzero;stroke:#000000;stroke-width:0.3985;stroke-linecap:butt;stroke-linejoin:miter;stroke-miterlimit:10;stroke-dasharray:none;stroke-opacity:1"
                 d="m 98.36551,-286.67274 36.52946,0 0,17.15804 -36.52946,0 0,-17.15804 z" /></g><g
               transform="translate(101.685,-281.3)"
               id="g438"><g
                 transform="translate(12.453,0)"
                 id="g440"><g
                   transform="translate(-166.36,-10.568)"
                   id="g442"><text
                     id="text444"
                     style="font-variant:normal;font-weight:normal;font-size:9.96259975px;font-family:CMR10;-inkscape-font-specification:CMR10;writing-mode:lr-tb;fill:#ffffff;fill-opacity:1;fill-rule:nonzero;stroke:none"
                     transform="matrix(1,0,0,-1,166.36,10.568)"><tspan
                       id="tspan446"
                       y="0"
                       x="0">4</tspan></text>
<g
                     transform="translate(153.907,10.568)"
                     id="g448" /></g></g><g
                 transform="translate(-101.685,281.3)"
                 id="g450" /></g></g><g
             id="g452"><g
               id="g454"><path
                 id="path456"
                 style="fill:#804000;fill-opacity:1;fill-rule:nonzero;stroke:#000000;stroke-width:0.3985;stroke-linecap:butt;stroke-linejoin:miter;stroke-miterlimit:10;stroke-dasharray:none;stroke-opacity:1"
                 d="m 140.27487,-235.19861 41.51085,0 0,17.15804 -41.51085,0 0,-17.15804 z" /></g><g
               transform="translate(143.594,-229.827)"
               id="g458"><g
                 transform="translate(14.943,0)"
                 id="g460"><g
                   transform="translate(-210.759,-62.041)"
                   id="g462"><text
                     id="text464"
                     style="font-variant:normal;font-weight:normal;font-size:9.96259975px;font-family:CMR10;-inkscape-font-specification:CMR10;writing-mode:lr-tb;fill:#ffffff;fill-opacity:1;fill-rule:nonzero;stroke:none"
                     transform="matrix(1,0,0,-1,210.759,62.041)"><tspan
                       id="tspan466"
                       y="0"
                       x="0">5</tspan></text>
<g
                     transform="translate(195.815,62.041)"
                     id="g468" /></g></g><g
                 transform="translate(-143.593,229.827)"
                 id="g470" /></g></g><g
             id="g472"><g
               id="g474"><path
                 id="path476"
                 style="fill:#804000;fill-opacity:1;fill-rule:nonzero;stroke:#000000;stroke-width:0.3985;stroke-linecap:butt;stroke-linejoin:miter;stroke-miterlimit:10;stroke-dasharray:none;stroke-opacity:1"
                 d="m 120.3493,-252.35664 18.59642,0 0,17.15804 -18.59642,0 0,-17.15804 z" /></g><g
               transform="translate(123.668,-246.984)"
               id="g478"><g
                 transform="translate(3.487,0)"
                 id="g480"><g
                   transform="translate(-179.377,-44.884)"
                   id="g482"><text
                     id="text484"
                     style="font-variant:normal;font-weight:normal;font-size:9.96259975px;font-family:CMR10;-inkscape-font-specification:CMR10;writing-mode:lr-tb;fill:#ffffff;fill-opacity:1;fill-rule:nonzero;stroke:none"
                     transform="matrix(1,0,0,-1,179.377,44.884)"><tspan
                       id="tspan486"
                       y="0"
                       x="0">6</tspan></text>
<g
                     transform="translate(175.89,44.884)"
                     id="g488" /></g></g><g
                 transform="translate(-123.668,246.984)"
                 id="g490" /></g></g><g
             id="g492"><g
               id="g494"><path
                 id="path496"
                 style="fill:#804000;fill-opacity:1;fill-rule:nonzero;stroke:#000000;stroke-width:0.3985;stroke-linecap:butt;stroke-linejoin:miter;stroke-miterlimit:10;stroke-dasharray:none;stroke-opacity:1"
                 d="m 125.33072,-269.5147 17.60023,0 0,17.15804 -17.60023,0 0,-17.15804 z" /></g><g
               transform="translate(128.65,-264.142)"
               id="g498"><g
                 transform="translate(2.988,0)"
                 id="g500"><g
                   transform="translate(-183.86,-27.726)"
                   id="g502"><text
                     id="text504"
                     style="font-variant:normal;font-weight:normal;font-size:9.96259975px;font-family:CMR10;-inkscape-font-specification:CMR10;writing-mode:lr-tb;fill:#ffffff;fill-opacity:1;fill-rule:nonzero;stroke:none"
                     transform="matrix(1,0,0,-1,183.86,27.726)"><tspan
                       id="tspan506"
                       y="0"
                       x="0">7</tspan></text>
<g
                     transform="translate(180.872,27.726)"
                     id="g508" /></g></g><g
                 transform="translate(-128.65,264.142)"
                 id="g510" /></g></g><g
             id="g512"><g
               id="g514"><path
                 id="path516"
                 style="fill:#804000;fill-opacity:1;fill-rule:nonzero;stroke:#000000;stroke-width:0.3985;stroke-linecap:butt;stroke-linejoin:miter;stroke-miterlimit:10;stroke-dasharray:none;stroke-opacity:1"
                 d="m 135.29349,-286.67274 11.62251,0 0,17.15804 -11.62251,0 0,-17.15804 z" /></g><g
               transform="translate(138.612,-281.3)"
               id="g518"><g
                 id="g520"><g
                   transform="translate(-190.834,-10.568)"
                   id="g522"><text
                     id="text524"
                     style="font-variant:normal;font-weight:normal;font-size:9.96259975px;font-family:CMR10;-inkscape-font-specification:CMR10;writing-mode:lr-tb;fill:#ffffff;fill-opacity:1;fill-rule:nonzero;stroke:none"
                     transform="matrix(1,0,0,-1,190.834,10.568)"><tspan
                       id="tspan526"
                       y="0"
                       x="0">8</tspan></text>
<g
                     transform="translate(190.834,10.568)"
                     id="g528" /></g></g><g
                 transform="translate(-138.612,281.3)"
                 id="g530" /></g></g><g
             id="g532"><g
               id="g534"><path
                 id="path536"
                 style="fill:#804000;fill-opacity:1;fill-rule:nonzero;stroke:#000000;stroke-width:0.3985;stroke-linecap:butt;stroke-linejoin:miter;stroke-miterlimit:10;stroke-dasharray:none;stroke-opacity:1"
                 d="m 182.18422,-235.19861 26.5667,0 0,17.15804 -26.5667,0 0,-17.15804 z" /></g><g
               transform="translate(185.502,-229.827)"
               id="g538"><g
                 transform="translate(7.472,0)"
                 id="g540"><g
                   transform="translate(-245.196,-62.041)"
                   id="g542"><text
                     id="text544"
                     style="font-variant:normal;font-weight:normal;font-size:9.96259975px;font-family:CMR10;-inkscape-font-specification:CMR10;writing-mode:lr-tb;fill:#ffffff;fill-opacity:1;fill-rule:nonzero;stroke:none"
                     transform="matrix(1,0,0,-1,245.196,62.041)"><tspan
                       id="tspan546"
                       y="0"
                       x="0">9</tspan></text>
<g
                     transform="translate(237.724,62.041)"
                     id="g548" /></g></g><g
                 transform="translate(-185.502,229.827)"
                 id="g550" /></g></g><g
             id="g552"><g
               id="g554"><path
                 id="path556"
                 style="fill:#8f8b48;fill-opacity:1;fill-rule:nonzero;stroke:#000000;stroke-width:0.3985;stroke-linecap:butt;stroke-linejoin:miter;stroke-miterlimit:10;stroke-dasharray:none;stroke-opacity:1"
                 d="m 209.14943,-286.67274 8.63365,0 0,68.63219 -8.63365,0 0,-68.63219 z" /></g><g
               transform="translate(212.467,-252.353)"
               id="g558"><g
                 transform="translate(0.996,0)"
                 id="g560"><g
                   transform="translate(-0.996,0)"
                   id="g562" /></g><g
                 transform="translate(-212.467,252.353)"
                 id="g564" /></g></g><g
             id="g566"><g
               id="g568"><path
                 id="path570"
                 style="fill:#008000;fill-opacity:1;fill-rule:nonzero;stroke:#000000;stroke-width:0.3985;stroke-linecap:butt;stroke-linejoin:miter;stroke-miterlimit:10;stroke-dasharray:none;stroke-opacity:1"
                 d="m 218.1816,-235.19861 26.5667,0 0,17.15804 -26.5667,0 0,-17.15804 z" /></g><g
               transform="translate(221.499,-226.616)"
               id="g572"><g
                 transform="translate(9.963,0)"
                 id="g574"><g
                   transform="translate(-9.963,0)"
                   id="g576" /></g><g
                 transform="translate(-221.499,226.616)"
                 id="g578" /></g></g></g></g></g></g></svg>